<?xml version="1.0" encoding="utf-8"?>
<svg width="1200px" height="1200px" viewBox="0 0 1200 1200" version="1.1" xmlns:xlink="http://www.w3.org/1999/xlink" xmlns="http://www.w3.org/2000/svg">
  <path d="M0 600C0 268.629 268.629 0 600 0C931.371 0 1200 268.629 1200 600C1200 931.371 931.371 1200 600 1200C268.629 1200 0 931.371 0 600Z" id="Oval" fill="#FAE800" fill-rule="evenodd" stroke="none" />
  <g id="Almacén--La-Familia-Copy" transform="matrix(0.9925462 -0.12186935 0.12186935 0.9925462 54 281)">
    <g transform="translate(253.4, 0)" id="Almacén--">
      <path d="M48.6 74.2Q47.6 77.2 46.5 80.2Q45.4 83.2 44.2 86Q40.6 94.8 36.5 102.5Q32.4 110.2 27.9 115.9Q23.4 121.6 18.5 124.8C15.2333 126.933 11.8667 128 8.4 128C8 128 7.6 127.967 7.2 127.9Q6.6 127.8 6.2 127.8Q4.6 127.4 3.2 127Q1.8 126.6 0.6 125.8Q-1.6 124.2 -3 122.1Q-4.4 120 -5.4 117.2Q-6 114.8 -6.1 112Q-6.2 109.2 -5.6 106.4Q-5.2 103.8 -4.2 101.4Q-3.2 99 -1.8 96.8Q1.2 92.4 4.4 92Q6 91.8 7.6 93Q8.8 94.2 8.8 95.6Q9 97 8.3 98.6Q7.6 100.2 6 101.6Q4.6 102.8 3.2 104.4Q1.8 106 0.8 108Q0.2 109.6 -0.2 111.2Q-0.6 112.8 -0.6 114.6L-0.2 115.6Q0.8 119.6 3.6 121.2Q5 122.2 7.2 122.6Q7.6 122.6 7.9 122.7Q8.2 122.8 8.6 122.8Q12.8 122.8 16.9 119.9Q21 117 24.9 111.7Q28.8 106.4 32.4 99.4Q36 92.4 39.4 84.2Q40.4 81.4 41.4 78.7Q42.4 76 43.4 73.2Q39.6 72.8 36.4 73.5Q33.2 74.2 30.6 77Q29.4 78.4 28.2 78.6Q27 78.8 26.2 78.3Q25.4 77.8 25.3 76.7Q25.2 75.6 26.2 74.4Q30 69.6 34.8 68.4Q39.6 67.2 45.2 68.2Q50 54 53.6 40.1Q57.2 26.2 59.4 14.8Q60.8 7.99999 61.5 2.79999Q62.2 -2.39999 62.4 -5.40001Q62.6 -7 63.3 -7.3Q64 -7.59999 65 -7.8Q66.6 -8.20001 70.2 -8.20001Q71.6 -8.2 72.9 -8.20001Q74.2 -8.2 75.2 -7.8Q77 -7.39999 78.2 -6.60001Q79.4 -5.79999 79.4 -4.2L79.6 -4.2L79.6 -4L79.4 -4Q79.4 -1.2 79.9 6.3Q80.4 13.8 81.3 24Q82.2 34.2 83.6 46.3Q85 58.4 86.6 70.4L87.2 74.6Q91.6 73 94.8 69.2Q95.8 68 97 67.8Q98.2 67.6 99 68.1Q99.8 68.6 100 69.7Q100.2 70.8 99.2 72Q96.6 75.2 93.8 77.1Q91 79 88 80Q90 92.8 92 103.6Q94 114.4 96.2 121.2Q97.4 124.6 93.6 127Q92 128.2 90.2 128.4Q89.4 128.8 88.5 128.8Q87.6 128.8 86.6 128.8Q83.8 128.8 81.3 127.5Q78.8 126.2 78.2 123.2Q76.6 116.6 74.8 105.3Q73 94 71.2 80.4Q67.8 79.8 64.6 78.8Q61.4 77.8 58 76.8Q55.6 76 53.2 75.3Q50.8 74.6 48.6 74.2ZM64 18.4Q61.8 29.2 58.3 42.5Q54.8 55.8 50.4 69.2Q52.6 69.8 55 70.4Q57.4 71 59.8 71.8Q62.4 72.8 65.1 73.6Q67.8 74.4 70.4 74.8L68 54.6Q66.6 44.6 65.6 35.3Q64.6 26 64 18.4ZM119 74Q118.6 80.4 118.4 86.5Q118.2 92.6 118.6 97.8Q119 106.8 120.4 112.5Q121.8 118.2 124.2 118.8Q127.6 119.4 130.8 115.9Q134 112.4 136.8 107.2Q140 101.6 142.3 95.4Q144.6 89.2 146.2 84.6Q146.6 83.2 147.6 82.8Q148.6 82.4 149.5 82.7Q150.4 83 150.9 84Q151.4 85 151 86.2Q149.4 91 147 97.5Q144.6 104 141.4 109.8Q138 116.2 133.7 120.4Q129.4 124.6 124.2 124Q115.2 123.4 110.5 115.1Q105.8 106.8 104.4 94.2Q103.4 85.2 103.8 75Q104.2 64.8 105.8 54.4Q107.4 43.8 110.2 34Q113 24.2 116.4 16Q121.2 4.59998 127.5 -1.8Q133.8 -8.20001 140.8 -6.40001Q141.6 -6 142.3 -5.7Q143 -5.40001 143.8 -5Q147.4 -2.60001 148.3 1.99999Q149.2 6.6 148.2 12.6Q147.2 18 145 24.4Q142.8 30.8 140 37.2Q137.2 43.2 134.2 48.9Q131.2 54.6 128.4 59.5Q125.6 64.4 123.1 68.2Q120.6 72 119 74ZM139.8 -1.20001Q137 -1 134.3 4Q131.6 8.99999 129 17.4Q126.2 25.8 124.2 36Q122.2 46.2 120.6 57L120 63.6Q123.4 58.2 127.5 50.7Q131.6 43.2 135.2 35Q138 28.8 140 22.8Q142 16.8 143 11.8Q143.8 7.2 143.4 4Q143 0.799995 141 -0.600006L139.8 -1.20001ZM150.6 49.8Q150.6 45.8 154.6 44.8Q156.6 44.2 158.6 44.4Q161 44.8 162.6 45.8Q164.8 47 166.2 49.1Q167.6 51.2 167 54.2Q165.4 62.6 164.6 70.2Q165.2 68 166 65.8Q166.8 63.6 167.6 61.6Q171.6 51.8 176.7 46.1Q181.8 40.4 187.8 40.6L190.2 41Q195 42.2 197.8 46.8Q200.6 51.4 202.2 57.8Q203 61.8 203.4 66.1Q203.8 70.4 203.8 75Q205 71.6 206.4 68.2Q207.8 64.8 209.4 61.6Q213.2 54.4 217.9 49.6Q222.6 44.8 228.6 44.8Q232.8 44.8 235.6 46.5Q238.4 48.2 240.1 51.4Q241.8 54.6 242.5 58.8Q243.2 63 243.2 68Q243.4 73.2 242.9 78.7Q242.4 84.2 242 90Q241.6 94.6 241.3 98.8Q241 103 241 106.6Q240.8 111.6 241.5 114.8Q242.2 118 244.4 118Q247 118 249.5 114.4Q252 110.8 254.2 105.8Q256.4 100.8 258.1 95.4Q259.8 90 261 86.4L261.6 84.6Q261.8 83.4 262.8 83.1Q263.8 82.8 264.8 83.1Q265.8 83.4 266.4 84.3Q267 85.2 266.6 86.4L266 88Q264.8 92 262.8 97.9Q260.8 103.8 258.1 109.3Q255.4 114.8 252 118.9Q248.6 123 244.8 123.2Q239.4 123.6 235.7 122.1Q232 120.6 229.8 117.7Q227.6 114.8 226.5 111.1Q225.4 107.4 225.2 103.2Q224.8 99.6 225 96Q225.2 92.4 225.4 89.4Q225.4 88.4 225.5 87.7Q225.6 87 225.6 86.6L226.4 74.8Q227 68.2 227.3 62.6Q227.6 57 226.4 54Q225.6 52 223.9 52.3Q222.2 52.6 221 53.8Q219.2 55.6 217.4 58.3Q215.6 61 214 64Q210 72 207.2 81.5Q204.4 91 202.8 98.2Q202.2 104 201.2 107.4Q200.8 109.8 199.3 111.2Q197.8 112.6 195.8 113Q194.2 113.6 192.4 113.2Q190.6 112.8 189.2 112Q187 110.8 185.8 108.6Q184.6 106.4 185 103.2Q185.4 100 185.9 95.1Q186.4 90.2 186.7 84.6Q187 79 187 73.3Q187 67.6 186.6 62.6Q186.2 59.4 185.7 56.7Q185.2 54 184.2 52.2Q182.8 49 181.3 49.5Q179.8 50 178.2 52.2Q175 57 172.4 63.6Q168.8 73 166.4 85.6Q164 98.2 163.2 112.4Q163.2 114 163.3 115.5Q163.4 117 163.6 118.6Q163.6 120.2 163.1 121.7Q162.6 123.2 160.4 123.6Q153.6 125 150.7 122.1Q147.8 119.2 146.8 114.2Q146 110.4 146 105.4Q145.6 99.2 145.7 92.9Q145.8 86.6 146.4 79.6Q146.8 72.8 147.9 65.5Q149 58.2 150.6 49.8ZM320.8 117Q323.8 115.2 327.2 110.6Q331 105.4 334.2 98.5Q337.4 91.6 339.8 84.6Q340.4 82.8 341.4 82.2Q342.4 81.6 343.3 81.9Q344.2 82.2 344.8 83.3Q345.4 84.4 344.8 86Q342.4 93.2 338.9 100.7Q335.4 108.2 331.4 113.6Q328 118.6 324 121.2Q320 123.8 315.8 122.8L315.4 122.8Q315.2 122.6 315 122.6Q308.6 120.4 305.2 113.4Q301.8 106.4 300.8 96Q299.2 100.8 297.3 105.6Q295.4 110.4 293.1 114.2Q290.8 118 288.1 120.5Q285.4 123 282.4 123.2Q275.2 123.8 270.5 119.5Q265.8 115.2 263.6 108Q260.6 99.2 261.2 88.2C261.467 84.6 261.933 81 262.6 77.4Q263.6 72 265.4 67Q267.4 61.8 270.2 57.3Q273 52.8 276.6 49.7Q280.2 46.6 284.7 45Q289.2 43.4 294.4 44Q295.8 44.2 297 44.5Q298.2 44.8 299.4 45.8Q302.4 48 304.4 53.2Q304.4 53.6 304.6 53.8L306.2 47.4L306.8 45.2Q307.2 43 308.7 42Q310.2 41 312.2 40.8Q313.2 40.8 313.9 40.8Q314.6 40.8 315.6 41.2Q317.4 42 318.6 42.8Q320.8 44.2 321.9 46.4Q323 48.6 322.2 51.4Q321 55.2 319.9 60.1Q318.8 65 318.1 70.3Q317.4 75.6 316.8 81.2Q316.2 86.8 316 92.2Q315.4 103.6 316 111.2Q316.4 114.2 317.3 116.4Q318.2 118.6 320.8 117ZM292.8 50.4Q289.6 52 287 56.3Q284.4 60.6 282.2 66.4Q278.2 78 277.2 90.6Q276.6 96.8 276.7 102.3Q276.8 107.8 277.8 111.8Q279.4 118.2 282 118Q284.4 117.8 286.7 115.1Q289 112.4 291 108.2Q293 104 294.6 99Q296.2 94 297.6 89.1Q299 84.2 299.9 80.1Q300.8 76 301.2 73.8Q301.2 72.8 301.3 72.1Q301.4 71.4 301.6 70.4Q301.4 66 300.9 62Q300.4 58 299.4 55Q299 54 298.5 53Q298 52 297.6 51.4Q295.6 48.8 292.8 50.4ZM368.2 50.8Q366 50.8 363.9 53.9Q361.8 57 360 61.8Q358.4 66.2 357.4 71.4Q356.4 76.6 355.8 82Q355.4 87.6 355.4 93Q355.4 98.4 356.2 103.2Q357.2 109.6 359.1 113.8Q361 118 364.2 118.6Q368.6 119.4 372.6 117.6Q376.6 115.8 380.4 112.2Q385 107.6 388.9 100.6Q392.8 93.6 395.8 84.6Q396.2 83.4 397.2 83.1Q398.2 82.8 399.1 83.1Q400 83.4 400.6 84.2Q401.2 85 400.8 86.2Q397.6 95.8 393.4 103.3Q389.2 110.8 384 115.8Q378.8 121 373.1 123Q367.4 125 361.2 123.4Q352.2 121 347.1 113.8Q342 106.6 340.4 97.2Q338.8 87.8 340.4 78Q342 68 346.2 60.2Q350 53.2 355.7 49.1Q361.4 45 368.4 45.6Q370.8 45.8 373.4 46.6Q378.8 48.8 381.4 54.4L382 56.4Q383.4 60.2 383 65.2Q382.6 69.4 381.2 73Q380 76.2 378.7 77.7Q377.4 79.2 376.2 79.8Q374 80.4 372.6 79.6Q371.2 78.8 370.6 77Q370.2 75.6 370.3 73.8Q370.4 72 371.8 70Q372.2 69.4 372.6 68.9Q373 68.4 373.6 67.6Q375.2 65.8 376.6 63.5Q378 61.2 377 57.8Q377 57.4 376.6 56.6Q375 52.8 371.4 51.6Q370.8 51.2 370 51.1Q369.2 51 368.2 50.8ZM411.4 95Q411.4 97.2 411.6 99.2Q411.8 101.2 412.2 103.2Q413.2 109.6 415.1 113.8Q417 118 420.2 118.8Q424.2 119.4 427.9 117.7Q431.6 116 435 112.4Q439.4 107.8 443.1 100.7Q446.8 93.6 449.8 84.6Q450.2 83.2 451.2 82.8Q452.2 82.4 453.1 82.7Q454 83 454.6 84Q455.2 85 454.6 86.4Q451.4 96 447.5 103.5Q443.6 111 438.8 116Q434.2 121 428.7 123Q423.2 125 417.2 123.4Q408.2 121 403.1 113.8Q398 106.6 396.4 97.2Q395.4 92.6 395.5 87.7Q395.6 82.8 396.4 78Q397.2 73.2 398.6 68.7Q400 64.2 402.2 60.2Q406 53.2 411.6 49.1Q417.2 45 424.4 45.6Q429 45.8 431.6 50Q433 52 433.5 54.6Q434 57.2 434 60.4Q433.8 63.2 433.2 66.4Q432.6 69.6 431.4 72.8Q428.6 79.8 423.6 86Q418.6 92.2 411.4 95ZM424.2 50.8Q422 50.8 419.8 53.9Q417.6 57 416 61.8Q414.4 66.2 413.4 71.4Q412.4 76.6 411.8 82Q411.6 83.8 411.5 85.6Q411.4 87.4 411.4 89.4Q416.8 86.6 420.5 81.6Q424.2 76.6 426.4 71Q428.4 65.4 428.8 60.2Q428.8 55.4 427.4 52.8Q426.2 51 424.2 50.8ZM417.4 32.8Q416 34.2 414.4 34.2Q413.2 34.2 412.4 33.6Q411.4 33.2 410.8 31.6Q410.4 30 411.2 28.2Q412 26.2 413.4 23.3Q414.8 20.4 416.8 17Q418.2 14.4 419.9 11.8Q421.6 9.2 423.4 6.59999Q425.2 4 428.4 4.59999Q429.8 4.79999 431.2 6.59999Q431.6 7 432 7.59999Q432.4 8.2 432.8 8.99999Q433.8 11.4 433.9 14Q434 16.6 432.4 18.2Q431.2 19.4 429.1 21.4Q427 23.4 424.8 25.8L417.4 32.8ZM512.4 117Q514.6 115.4 516.8 111.6Q519 107.8 520.8 103.2Q522.6 98.6 524.1 94.1Q525.6 89.6 526.6 86.4L527.2 84.6Q527.4 83.4 528.4 83Q529.4 82.6 530.3 82.9Q531.2 83.2 531.8 84.1Q532.4 85 532 86.4Q532 86.8 531.6 88Q530.6 91.4 529 96.1Q527.4 100.8 525.3 105.6Q523.2 110.4 520.7 114.6Q518.2 118.8 515.2 121Q511.8 123.8 508.4 123.6Q505 123.4 501.6 122.2Q495.8 120.2 493.5 114.9Q491.2 109.6 490.8 103.2Q490.4 99.6 490.5 96Q490.6 92.4 491 89.4Q491 87.2 491.2 86.6Q491.4 83.4 491.5 80.5Q491.6 77.6 492 74.8Q492.6 68.2 492.8 62.6Q493 57 492 54Q491 51.6 487.8 52.6Q483.4 56.4 479.6 64Q476.8 69.4 474.7 75.5Q472.6 81.6 471 87.4Q469.4 93.2 468.3 98.2Q467.2 103.2 466.6 106.2Q466.8 110.2 466.9 113.8Q467 117.4 467.4 120.8L467.2 120.8L466.6 122Q466 123 465.3 123.2Q464.6 123.4 464.2 123.6Q457.2 125 454.4 122.1Q451.6 119.2 450.6 114.2Q450 110.8 449.7 105.9Q449.4 101 449.4 96Q449.4 91 449.6 86.6C449.733 83.6667 449.867 81.3333 450 79.6Q450.6 72.8 451.6 65.5Q452.6 58.2 454.4 49.8Q454.4 45.8 458.2 44.8Q460.2 44.2 462.4 44.4Q464.8 44.8 466.4 45.8Q468.6 47 470 49.1Q471.4 51.2 470.8 54.2Q468.2 67.6 467.2 81.4Q468.8 76.2 470.8 71.2Q472.8 66.2 475 61.6Q478.6 54.4 483.4 49.6Q488.2 44.8 494 44.8Q498.2 44.8 501.1 46.5Q504 48.2 505.6 51.4Q507.2 54.6 508 58.8Q508.8 63 508.8 68Q509 73.2 508.5 78.7Q508 84.2 507.6 90Q507.2 94.6 506.8 98.8Q506.4 103 506.4 106.6Q506.4 109.8 506.6 112.1Q506.8 114.4 507.4 116Q508.4 117.8 509.7 117.9Q511 118 512.4 117Z" />
    </g>
    <g transform="translate(780.6, 0)" id="Almacén--">
      <path d="" />
    </g>
    <g transform="translate(48.568054, 235.99998)" id="La-Familia">
      <path d="M22.464 174.816L24.768 174.816Q29.088 171.072 31.824 164.16Q34.56 157.248 36.144 148.608Q37.728 139.968 38.304 130.032Q38.88 120.096 38.88 110.304Q30.816 110.88 23.904 107.712Q15.552 103.968 10.944 96.48Q6.912 90.144 6.048 81.648Q5.184 73.152 8.064 62.208Q8.928 58.464 10.512 56.304Q12.096 54.144 13.536 53.28Q16.416 52.416 18.144 52.992Q20.448 53.568 21.312 55.872Q23.328 59.328 20.736 65.664Q20.16 67.392 19.296 68.688Q18.432 69.984 17.568 71.424Q15.552 74.016 14.256 77.328Q12.96 80.64 14.688 86.4Q15.552 89.856 17.28 92.448Q20.736 98.208 27.072 100.8Q31.968 103.392 38.88 102.816Q38.88 98.496 38.88 94.176Q38.88 89.856 38.592 85.248Q38.304 67.68 38.592 50.976Q38.88 34.272 41.904 21.312Q44.928 8.35199 51.984 0.431976Q59.04 -7.48798 72.288 -7.48801Q78.624 -7.48801 82.08 -4.32002Q87.84 -0.287994 90.432 8.63998Q92.736 16.992 92.736 26.784Q92.736 34.848 91.44 43.632Q90.144 52.416 87.696 60.768Q85.248 69.12 81.792 76.752Q78.336 84.384 74.016 90.144Q71.712 93.312 69.12 95.904Q66.528 98.496 63.648 100.8Q63.648 111.744 62.928 123.12Q62.208 134.496 59.616 144.576Q57.024 154.656 52.56 163.152Q48.096 171.648 40.896 177.12Q46.944 178.56 53.568 180.576Q60.192 182.592 67.104 184.896Q76.32 187.776 85.536 190.512Q94.752 193.248 102.24 194.4Q109.728 195.552 115.2 194.688Q120.672 193.824 122.4 189.504Q122.976 186.624 124.56 185.328Q126.144 184.032 127.44 184.32Q128.736 184.608 129.6 186.336Q130.464 188.064 129.6 190.944Q128.736 195.264 126.576 199.728Q124.416 204.192 120.672 207.936Q117.216 211.392 112.032 213.264Q106.848 215.136 99.936 214.56Q93.312 213.984 85.392 209.952Q77.472 205.92 68.544 200.736Q59.328 195.552 49.536 190.512Q39.744 185.472 29.952 183.456Q26.784 184.896 23.328 185.76Q19.872 186.624 15.84 187.2Q9.792 188.64 7.2 187.488Q4.032 186.624 3.456 183.456Q2.88 181.152 5.472 179.136Q8.064 176.544 16.416 175.104Q17.856 175.104 19.296 174.96Q20.736 174.816 22.464 174.816ZM72 -1.52588e-05Q66.816 2.592 64.368 8.92798Q61.92 15.264 61.2 24.192Q60.48 33.12 60.912 44.208Q61.344 55.296 62.208 67.104Q62.784 72.864 63.072 78.912Q63.36 84.96 63.648 91.008Q65.664 88.992 67.968 85.824Q72 80.64 75.168 73.44Q78.336 66.24 80.64 58.464Q82.944 50.688 84.096 42.48Q85.248 34.272 85.248 26.784Q85.248 16.992 83.232 10.656Q81.504 4.608 77.76 1.728Q75.456 0 72.288 -1.52588e-05L72 -1.52588e-05ZM186.624 168.48Q190.944 165.888 195.84 159.264Q201.312 151.776 205.92 141.84Q210.528 131.904 213.984 121.824Q214.848 119.232 216.288 118.368Q217.728 117.504 219.024 117.936Q220.32 118.368 221.184 119.952Q222.048 121.536 221.184 123.84Q217.728 134.208 212.688 145.008Q207.648 155.808 201.888 163.584Q196.992 170.784 191.232 174.528Q185.472 178.272 179.424 176.832L178.848 176.832Q178.56 176.544 178.272 176.544Q169.056 173.376 164.16 163.296Q159.264 153.216 157.824 138.24Q155.52 145.152 152.784 152.064Q150.048 158.976 146.736 164.448Q143.424 169.92 139.536 173.52Q135.648 177.12 131.328 177.408Q120.96 178.272 114.192 172.08Q107.424 165.888 104.256 155.52Q99.936 142.848 100.8 127.008C101.184 121.824 101.856 116.64 102.816 111.456Q104.256 103.68 106.848 96.48Q109.728 88.992 113.76 82.512Q117.792 76.032 122.976 71.568Q128.16 67.104 134.64 64.8Q141.12 62.496 148.608 63.36Q150.624 63.648 152.352 64.08Q154.08 64.512 155.808 65.952Q160.128 69.12 163.008 76.608Q163.008 77.184 163.296 77.472L165.6 68.256L166.464 65.088Q167.04 61.92 169.2 60.48Q171.36 59.04 174.24 58.752Q175.68 58.752 176.688 58.752Q177.696 58.752 179.136 59.328Q181.728 60.48 183.456 61.632Q186.624 63.648 188.208 66.816Q189.792 69.984 188.64 74.016Q186.912 79.488 185.328 86.544Q183.744 93.6 182.736 101.232Q181.728 108.864 180.864 116.928Q180 124.992 179.712 132.768Q178.848 149.184 179.712 160.128Q180.288 164.448 181.584 167.616Q182.88 170.784 186.624 168.48ZM146.304 72.576Q141.696 74.88 137.952 81.072Q134.208 87.264 131.04 95.616Q125.28 112.32 123.84 130.464Q122.976 139.392 123.12 147.312Q123.264 155.232 124.704 160.992Q127.008 170.208 130.752 169.92Q134.208 169.632 137.52 165.744Q140.832 161.856 143.712 155.808Q146.592 149.76 148.896 142.56Q151.2 135.36 153.216 128.304Q155.232 121.248 156.528 115.344Q157.824 109.44 158.4 106.272Q158.4 104.832 158.544 103.824Q158.688 102.816 158.976 101.376Q158.688 95.04 157.968 89.28Q157.248 83.52 155.808 79.2Q155.232 77.76 154.512 76.32Q153.792 74.88 153.216 74.016Q150.336 70.272 146.304 72.576ZM313.632 82.368Q315.072 64.224 316.944 47.232Q318.816 30.24 321.696 17.568Q321.696 11.808 326.88 9.79199Q329.472 8.35199 332.64 8.92798Q335.808 9.50395 338.4 10.656Q340.992 12.384 342.432 15.12Q343.872 17.856 343.008 21.888Q340.704 31.968 339.12 49.68Q337.536 67.392 336.672 87.84Q345.312 85.536 354.24 86.112Q363.168 86.688 371.808 92.736Q373.536 93.888 373.68 95.472Q373.824 97.056 372.96 98.208Q372.096 99.36 370.512 99.648Q368.928 99.936 367.2 98.784Q360 93.888 352.08 93.744Q344.16 93.6 336.384 95.616Q336.096 98.208 336.096 100.8Q336.096 103.392 336.096 105.984Q335.808 116.064 335.664 125.856Q335.52 135.648 335.664 144.432Q335.808 153.216 336.24 160.416Q336.672 167.616 337.248 172.8Q338.4 176.544 337.68 179.856Q336.96 183.168 332.064 184.32Q329.472 184.896 327.168 184.032Q324 183.456 320.832 181.584Q317.664 179.712 316.512 178.272Q314.496 175.392 313.92 172.08Q313.344 168.768 312.768 164.16L312.48 162.432Q311.616 154.368 311.616 138.384Q311.616 122.4 312.48 103.104Q304.992 105.12 298.224 104.4Q291.456 103.68 285.984 97.632Q282.528 93.6 285.408 91.584Q288.288 89.568 292.032 93.024Q296.064 96.768 301.392 96.768Q306.72 96.768 312.768 95.04L313.632 82.368ZM413.28 -1.52588e-05Q407.232 5.75999 400.32 7.63197Q393.408 9.50395 386.064 9.07199Q378.72 8.63998 371.088 6.62398Q363.456 4.608 355.968 2.30399Q350.208 0.575989 345.024 -1.00801Q339.84 -2.59201 334.944 -3.16801L332.928 -3.45601Q332.064 -3.45599 331.2 -3.60002Q330.336 -3.744 329.472 -3.74402Q313.92 -4.032 302.688 -0.144012Q291.456 3.744 284.256 10.08Q275.04 18.144 271.872 28.512Q268.992 38.88 271.584 48.672Q272.16 50.976 273.024 52.848Q273.888 54.72 274.752 56.736Q276.768 58.752 279.36 59.76Q281.952 60.768 284.256 61.344Q286.272 61.92 288.144 62.496Q290.016 63.072 291.456 64.224Q296.064 67.392 296.064 71.424Q296.64 73.44 295.488 74.88Q294.624 76.608 292.32 77.472Q288.864 78.912 284.256 76.032Q269.28 67.68 264.384 50.688Q260.928 38.592 264.672 26.496Q266.4 20.448 270 14.832Q273.6 9.21599 279.36 4.31999Q287.712 -2.59203 300.096 -6.91202Q312.48 -11.232 329.76 -10.944L333.792 -10.944Q344.736 -9.504 357.552 -8.35202Q370.368 -7.2 381.888 -6.62402Q390.528 -6.04797 397.296 -6.19202Q404.064 -6.33603 407.808 -7.20001Q413.28 -8.35202 414.72 -5.61601Q416.16 -2.88 413.28 -1.52588e-05ZM467.136 168.48Q471.456 165.888 476.352 159.264Q481.824 151.776 486.432 141.84Q491.04 131.904 494.496 121.824Q495.36 119.232 496.8 118.368Q498.24 117.504 499.536 117.936Q500.832 118.368 501.696 119.952Q502.56 121.536 501.696 123.84Q498.24 134.208 493.2 145.008Q488.16 155.808 482.4 163.584Q477.504 170.784 471.744 174.528Q465.984 178.272 459.936 176.832L459.36 176.832Q459.072 176.544 458.784 176.544Q449.568 173.376 444.672 163.296Q439.776 153.216 438.336 138.24Q436.032 145.152 433.296 152.064Q430.56 158.976 427.248 164.448Q423.936 169.92 420.048 173.52Q416.16 177.12 411.84 177.408Q401.472 178.272 394.704 172.08Q387.936 165.888 384.768 155.52Q380.448 142.848 381.312 127.008C381.696 121.824 382.368 116.64 383.328 111.456Q384.768 103.68 387.36 96.48Q390.24 88.992 394.272 82.512Q398.304 76.032 403.488 71.568Q408.672 67.104 415.152 64.8Q421.632 62.496 429.12 63.36Q431.136 63.648 432.864 64.08Q434.592 64.512 436.32 65.952Q440.64 69.12 443.52 76.608Q443.52 77.184 443.808 77.472L446.112 68.256L446.976 65.088Q447.552 61.92 449.712 60.48Q451.872 59.04 454.752 58.752Q456.192 58.752 457.2 58.752Q458.208 58.752 459.648 59.328Q462.24 60.48 463.968 61.632Q467.136 63.648 468.72 66.816Q470.304 69.984 469.152 74.016Q467.424 79.488 465.84 86.544Q464.256 93.6 463.248 101.232Q462.24 108.864 461.376 116.928Q460.512 124.992 460.224 132.768Q459.36 149.184 460.224 160.128Q460.8 164.448 462.096 167.616Q463.392 170.784 467.136 168.48ZM426.816 72.576Q422.208 74.88 418.464 81.072Q414.72 87.264 411.552 95.616Q405.792 112.32 404.352 130.464Q403.488 139.392 403.632 147.312Q403.776 155.232 405.216 160.992Q407.52 170.208 411.264 169.92Q414.72 169.632 418.032 165.744Q421.344 161.856 424.224 155.808Q427.104 149.76 429.408 142.56Q431.712 135.36 433.728 128.304Q435.744 121.248 437.04 115.344Q438.336 109.44 438.912 106.272Q438.912 104.832 439.056 103.824Q439.2 102.816 439.488 101.376Q439.2 95.04 438.48 89.28Q437.76 83.52 436.32 79.2Q435.744 77.76 435.024 76.32Q434.304 74.88 433.728 74.016Q430.848 70.272 426.816 72.576ZM500.832 71.712Q500.832 65.952 506.592 64.512Q509.472 63.648 512.352 63.936Q515.808 64.512 518.112 65.952Q521.28 67.68 523.296 70.704Q525.312 73.728 524.448 78.048Q522.144 90.144 520.992 101.088Q521.856 97.92 523.008 94.752Q524.16 91.584 525.312 88.704Q531.072 74.592 538.416 66.384Q545.76 58.176 554.4 58.464L557.856 59.04Q564.768 60.768 568.8 67.392Q572.832 74.016 575.136 83.232Q576.288 88.992 576.864 95.184Q577.44 101.376 577.44 108Q579.168 103.104 581.184 98.208Q583.2 93.312 585.504 88.704Q590.976 78.336 597.744 71.424Q604.512 64.512 613.152 64.512Q619.2 64.512 623.232 66.96Q627.264 69.408 629.712 74.016Q632.16 78.624 633.168 84.672Q634.176 90.72 634.176 97.92Q634.464 105.408 633.744 113.328Q633.024 121.248 632.448 129.6Q631.872 136.224 631.44 142.272Q631.008 148.32 631.008 153.504Q630.72 160.704 631.728 165.312Q632.736 169.92 635.904 169.92Q639.648 169.92 643.248 164.736Q646.848 159.552 650.016 152.352Q653.184 145.152 655.632 137.376Q658.08 129.6 659.808 124.416L660.672 121.824Q660.96 120.096 662.4 119.664Q663.84 119.232 665.28 119.664Q666.72 120.096 667.584 121.392Q668.448 122.688 667.872 124.416L667.008 126.72Q665.28 132.48 662.4 140.976Q659.52 149.472 655.632 157.392Q651.744 165.312 646.848 171.216Q641.952 177.12 636.48 177.408Q628.704 177.984 623.376 175.824Q618.048 173.664 614.88 169.488Q611.712 165.312 610.128 159.984Q608.544 154.656 608.256 148.608Q607.68 143.424 607.968 138.24Q608.256 133.056 608.544 128.736Q608.544 127.296 608.688 126.288Q608.832 125.28 608.832 124.704L609.984 107.712Q610.848 98.208 611.28 90.144Q611.712 82.08 609.984 77.76Q608.832 74.88 606.384 75.312Q603.936 75.744 602.208 77.472Q599.616 80.064 597.024 83.952Q594.432 87.84 592.128 92.16Q586.368 103.68 582.336 117.36Q578.304 131.04 576 141.408Q575.136 149.76 573.696 154.656Q573.12 158.112 570.96 160.128Q568.8 162.144 565.92 162.72Q563.616 163.584 561.024 163.008Q558.432 162.432 556.416 161.28Q553.248 159.552 551.52 156.384Q549.792 153.216 550.368 148.608Q550.944 144 551.664 136.944Q552.384 129.888 552.816 121.824Q553.248 113.76 553.248 105.552Q553.248 97.344 552.672 90.144Q552.096 85.536 551.376 81.648Q550.656 77.76 549.216 75.168Q547.2 70.56 545.04 71.28Q542.88 72 540.576 75.168Q535.968 82.08 532.224 91.584Q527.04 105.12 523.584 123.264Q520.128 141.408 518.976 161.856Q518.976 164.16 519.12 166.32Q519.264 168.48 519.552 170.784Q519.552 173.088 518.832 175.248Q518.112 177.408 514.944 177.984Q505.152 180 500.976 175.824Q496.8 171.648 495.36 164.448Q494.208 158.976 494.208 151.776Q493.632 142.848 493.776 133.776Q493.92 124.704 494.784 114.624Q495.36 104.832 496.944 94.32Q498.528 83.808 500.832 71.712ZM690.048 168.768Q692.64 166.464 695.52 161.568Q698.4 156.672 700.992 150.912Q704.736 142.56 707.616 134.496Q710.496 126.432 711.936 121.824Q712.512 120.096 713.952 119.52Q715.392 118.944 716.832 119.376Q718.272 119.808 718.992 121.104Q719.712 122.4 719.136 124.416Q717.696 129.312 714.672 137.52Q711.648 145.728 707.904 154.08Q704.16 161.856 699.984 168.192Q695.808 174.528 690.912 177.12Q688.608 178.272 686.304 178.272Q684.576 178.272 683.712 177.984Q672.192 176.256 666.432 161.856C662.592 152.64 660.672 140.064 660.672 124.128C660.672 118.56 660.912 112.608 661.392 106.272Q662.112 96.768 663.552 85.824Q663.552 82.656 665.28 80.64Q667.008 78.624 669.6 77.76Q671.04 77.472 672.48 77.328Q673.92 77.184 675.36 77.472Q678.528 78.048 681.12 79.2Q684.288 80.64 686.304 83.376Q688.32 86.112 687.744 89.28Q686.88 94.176 686.16 99.36Q685.44 104.544 684.864 110.016Q683.424 121.536 683.424 132.48Q683.424 143.424 684.288 152.352Q685.44 163.584 688.032 168.48Q688.608 170.208 690.048 168.768ZM677.088 43.2Q678.816 44.064 679.968 45.216L681.984 43.776Q684 42.912 685.728 42.336Q688.032 41.76 690.048 42.624Q692.928 43.488 694.656 46.368Q696.96 50.4 693.648 54.72Q690.336 59.04 686.016 63.648L681.12 68.832L678.24 72.288L675.648 68.544Q675.072 67.968 674.352 66.96Q673.632 65.952 672.768 64.8Q669.312 59.904 666 54.576Q662.688 49.248 664.704 45.504Q665.856 43.2 668.448 42.336Q670.464 41.472 673.056 41.76Q674.784 41.76 677.088 43.2ZM733.824 106.56Q733.248 115.776 732.96 124.56Q732.672 133.344 733.248 140.832Q733.824 153.792 735.84 162Q737.856 170.208 741.312 171.072Q746.208 171.936 750.816 166.896Q755.424 161.856 759.456 154.368Q764.064 146.304 767.376 137.376Q770.688 128.448 772.992 121.824Q773.568 119.808 775.008 119.232Q776.448 118.656 777.744 119.088Q779.04 119.52 779.76 120.96Q780.48 122.4 779.904 124.128Q777.6 131.04 774.144 140.4Q770.688 149.76 766.08 158.112Q761.184 167.328 754.992 173.376Q748.8 179.424 741.312 178.56Q728.352 177.696 721.584 165.744Q714.816 153.792 712.8 135.648Q711.36 122.688 711.936 108Q712.512 93.312 714.816 78.336Q717.12 63.072 721.152 48.96Q725.184 34.848 730.08 23.04Q736.992 6.62396 746.064 -2.59203Q755.136 -11.808 765.216 -9.21602Q766.368 -8.64001 767.376 -8.20801Q768.384 -7.77602 769.536 -7.20001Q774.72 -3.744 776.016 2.87997Q777.312 9.504 775.872 18.144Q774.432 25.92 771.264 35.136Q768.096 44.352 764.064 53.568Q760.032 62.208 755.712 70.416Q751.392 78.624 747.36 85.68Q743.328 92.736 739.728 98.208Q736.128 103.68 733.824 106.56ZM763.776 -1.72801Q759.744 -1.44 755.856 5.75999Q751.968 12.96 748.224 25.056Q744.192 37.152 741.312 51.84Q738.432 66.528 736.128 82.08L735.264 91.584Q740.16 83.808 746.064 73.008Q751.968 62.208 757.152 50.4Q761.184 41.472 764.064 32.832Q766.944 24.192 768.384 16.992Q769.536 10.368 768.96 5.75999Q768.384 1.15198 765.504 -0.864014L763.776 -1.72801ZM802.368 168.768Q804.96 166.464 807.84 161.568Q810.72 156.672 813.312 150.912Q817.056 142.56 819.936 134.496Q822.816 126.432 824.256 121.824Q824.832 120.096 826.272 119.52Q827.712 118.944 829.152 119.376Q830.592 119.808 831.312 121.104Q832.032 122.4 831.456 124.416Q830.016 129.312 826.992 137.52Q823.968 145.728 820.224 154.08Q816.48 161.856 812.304 168.192Q808.128 174.528 803.232 177.12Q800.928 178.272 798.624 178.272Q796.896 178.272 796.032 177.984Q784.512 176.256 778.752 161.856C774.912 152.64 772.992 140.064 772.992 124.128C772.992 118.56 773.232 112.608 773.712 106.272Q774.432 96.768 775.872 85.824Q775.872 82.656 777.6 80.64Q779.328 78.624 781.92 77.76Q783.36 77.472 784.8 77.328Q786.24 77.184 787.68 77.472Q790.848 78.048 793.44 79.2Q796.608 80.64 798.624 83.376Q800.64 86.112 800.064 89.28Q799.2 94.176 798.48 99.36Q797.76 104.544 797.184 110.016Q795.744 121.536 795.744 132.48Q795.744 143.424 796.608 152.352Q797.76 163.584 800.352 168.48Q800.928 170.208 802.368 168.768ZM789.408 43.2Q791.136 44.064 792.288 45.216L794.304 43.776Q796.32 42.912 798.048 42.336Q800.352 41.76 802.368 42.624Q805.248 43.488 806.976 46.368Q809.28 50.4 805.968 54.72Q802.656 59.04 798.336 63.648L793.44 68.832L790.56 72.288L787.968 68.544Q787.392 67.968 786.672 66.96Q785.952 65.952 785.088 64.8Q781.632 59.904 778.32 54.576Q775.008 49.248 777.024 45.504Q778.176 43.2 780.768 42.336Q782.784 41.472 785.376 41.76Q787.104 41.76 789.408 43.2ZM909.504 168.48Q913.824 165.888 918.72 159.264Q924.192 151.776 928.8 141.84Q933.408 131.904 936.864 121.824Q937.728 119.232 939.168 118.368Q940.608 117.504 941.904 117.936Q943.2 118.368 944.064 119.952Q944.928 121.536 944.064 123.84Q940.608 134.208 935.568 145.008Q930.528 155.808 924.768 163.584Q919.872 170.784 914.112 174.528Q908.352 178.272 902.304 176.832L901.728 176.832Q901.44 176.544 901.152 176.544Q891.936 173.376 887.04 163.296Q882.144 153.216 880.704 138.24Q878.4 145.152 875.664 152.064Q872.928 158.976 869.616 164.448Q866.304 169.92 862.416 173.52Q858.528 177.12 854.208 177.408Q843.84 178.272 837.072 172.08Q830.304 165.888 827.136 155.52Q822.816 142.848 823.68 127.008C824.064 121.824 824.736 116.64 825.696 111.456Q827.136 103.68 829.728 96.48Q832.608 88.992 836.64 82.512Q840.672 76.032 845.856 71.568Q851.04 67.104 857.52 64.8Q864 62.496 871.488 63.36Q873.504 63.648 875.232 64.08Q876.96 64.512 878.688 65.952Q883.008 69.12 885.888 76.608Q885.888 77.184 886.176 77.472L888.48 68.256L889.344 65.088Q889.92 61.92 892.08 60.48Q894.24 59.04 897.12 58.752Q898.56 58.752 899.568 58.752Q900.576 58.752 902.016 59.328Q904.608 60.48 906.336 61.632Q909.504 63.648 911.088 66.816Q912.672 69.984 911.52 74.016Q909.792 79.488 908.208 86.544Q906.624 93.6 905.616 101.232Q904.608 108.864 903.744 116.928Q902.88 124.992 902.592 132.768Q901.728 149.184 902.592 160.128Q903.168 164.448 904.464 167.616Q905.76 170.784 909.504 168.48ZM869.184 72.576Q864.576 74.88 860.832 81.072Q857.088 87.264 853.92 95.616Q848.16 112.32 846.72 130.464Q845.856 139.392 846 147.312Q846.144 155.232 847.584 160.992Q849.888 170.208 853.632 169.92Q857.088 169.632 860.4 165.744Q863.712 161.856 866.592 155.808Q869.472 149.76 871.776 142.56Q874.08 135.36 876.096 128.304Q878.112 121.248 879.408 115.344Q880.704 109.44 881.28 106.272Q881.28 104.832 881.424 103.824Q881.568 102.816 881.856 101.376Q881.568 95.04 880.848 89.28Q880.128 83.52 878.688 79.2Q878.112 77.76 877.392 76.32Q876.672 74.88 876.096 74.016Q873.216 70.272 869.184 72.576Z" />
    </g>
  </g>
  <g id="HAMBURGO-#3347-Copy" transform="translate(326 898)">
    <g transform="translate(59.453125, 0)" id="HAMBURGO">
      <path d="M17.5 36.6563L17.5 49.7813Q17.5 53.0313 17.8594 53.8438Q18.2187 54.6563 19.2656 55.2656Q20.3125 55.875 22.0938 55.875L23.5 55.875L23.5 57.0313L1.34375 57.0313L1.34375 55.875L2.75 55.875Q4.59375 55.875 5.71875 55.2188Q6.53125 54.7813 6.96875 53.7188Q7.3125 52.9688 7.3125 49.7813L7.3125 21.9063Q7.3125 18.6563 6.96875 17.8438Q6.625 17.0313 5.57813 16.4219Q4.53125 15.8125 2.75 15.8125L1.34375 15.8125L1.34375 14.6563L23.5 14.6563L23.5 15.8125L22.0938 15.8125Q20.25 15.8125 19.125 16.4688Q18.3125 16.9063 17.8438 17.9688Q17.5 18.7188 17.5 21.9063L17.5 33.9063L32.4688 33.9063L32.4688 21.9063Q32.4688 18.6563 32.125 17.8438Q31.7812 17.0313 30.7188 16.4219Q29.6563 15.8125 27.875 15.8125L26.5 15.8125L26.5 14.6563L48.625 14.6563L48.625 15.8125L47.25 15.8125Q45.375 15.8125 44.2813 16.4688Q43.4688 16.9063 43 17.9688Q42.6563 18.7188 42.6563 21.9063L42.6563 49.7813Q42.6563 53.0313 43 53.8438Q43.3437 54.6563 44.4063 55.2656Q45.4688 55.875 47.25 55.875L48.625 55.875L48.625 57.0313L26.5 57.0313L26.5 55.875L27.875 55.875Q29.75 55.875 30.8438 55.2188Q31.6563 54.7813 32.125 53.7188Q32.4687 52.9688 32.4688 49.7813L32.4688 36.6563L17.5 36.6563ZM81.4063 44.9688L66.4375 44.9688L64.6563 49.0938Q63.7813 51.1563 63.7813 52.5Q63.7813 54.2813 65.2188 55.125Q66.0625 55.625 69.375 55.875L69.375 57.0313L55.2813 57.0313L55.2813 55.875Q57.5625 55.5313 59.0313 53.9844Q60.5 52.4375 62.6563 47.5938L77.8125 13.7813L78.4063 13.7813L93.6875 48.5313Q95.875 53.4688 97.2813 54.75Q98.3438 55.7188 100.281 55.875L100.281 57.0313L79.7813 57.0313L79.7813 55.875L80.625 55.875Q83.0938 55.875 84.0938 55.1875Q84.7813 54.6875 84.7813 53.75Q84.7813 53.1875 84.5938 52.5938Q84.5313 52.3125 83.6563 50.25L81.4063 44.9688ZM80.3438 42.6563L74.0313 28.0625L67.5313 42.6563L80.3438 42.6563ZM136.5 42.5938L148 14.6563L165.25 14.6563L165.25 15.8125L163.875 15.8125Q162 15.8125 160.875 16.4688Q160.094 16.9063 159.625 17.9375Q159.281 18.6875 159.281 21.8438L159.281 49.7813Q159.281 53.0313 159.625 53.8438Q159.969 54.6563 161.031 55.2656Q162.094 55.875 163.875 55.875L165.25 55.875L165.25 57.0313L143.125 57.0313L143.125 55.875L144.5 55.875Q146.375 55.875 147.5 55.2188Q148.281 54.7813 148.75 53.7188Q149.094 52.9688 149.094 49.7813L149.094 18.375L132.844 57.0313L132.094 57.0313L115.594 18.6563L115.594 48.5Q115.594 51.625 115.75 52.3438Q116.156 53.9063 117.516 54.8906Q118.875 55.875 121.781 55.875L121.781 57.0313L107.281 57.0313L107.281 55.875L107.719 55.875Q109.125 55.9063 110.344 55.4219Q111.563 54.9375 112.188 54.125Q112.813 53.3125 113.156 51.8438Q113.219 51.5 113.219 48.6563L113.219 21.8438Q113.219 18.625 112.875 17.8281Q112.531 17.0313 111.469 16.4219Q110.406 15.8125 108.625 15.8125L107.281 15.8125L107.281 14.6563L124.594 14.6563L136.5 42.5938ZM199.875 34.5625Q205.906 35.9688 208.344 37.9688Q211.844 40.8125 211.844 45.3438Q211.844 50.125 208 53.25Q203.281 57.0313 194.281 57.0313L172.75 57.0313L172.75 55.875Q175.688 55.875 176.734 55.3281Q177.781 54.7813 178.203 53.9063Q178.625 53.0313 178.625 49.5938L178.625 22.0938Q178.625 18.6563 178.203 17.7656Q177.781 16.875 176.719 16.3438Q175.656 15.8125 172.75 15.8125L172.75 14.6563L193.063 14.6563Q200.344 14.6563 203.375 15.9531Q206.406 17.25 208.156 19.8281Q209.906 22.4063 209.906 25.3125Q209.906 28.375 207.688 30.7656Q205.469 33.1563 199.875 34.5625ZM188.5 33.7188Q192.938 33.7188 195.047 32.7188Q197.156 31.7188 198.281 29.9063Q199.406 28.0938 199.406 25.2813Q199.406 22.4688 198.297 20.6719Q197.188 18.875 195.125 17.9375Q193.063 17 188.5 17.0313L188.5 33.7188ZM188.5 36.1563L188.5 49.75L188.469 51.3125Q188.469 53 189.328 53.8594Q190.188 54.7188 191.875 54.7188Q194.375 54.7188 196.484 53.6094Q198.594 52.5 199.719 50.3906Q200.844 48.2813 200.844 45.6875Q200.844 42.7188 199.469 40.3594Q198.094 38 195.688 37.0625Q193.281 36.125 188.5 36.1563ZM220.594 14.6563L242.469 14.6563L242.469 15.8125L241.375 15.8125Q238.906 15.8125 237.984 16.3281Q237.063 16.8438 236.672 17.75Q236.281 18.6563 236.281 22.2813L236.281 43.0313Q236.281 48.7188 237.141 50.5625Q238 52.4063 239.969 53.625Q241.938 54.8438 244.938 54.8438Q248.375 54.8438 250.797 53.2969Q253.219 51.75 254.422 49.0313Q255.625 46.3125 255.625 39.5625L255.625 22.2813Q255.625 19.4375 255.031 18.2188Q254.438 17 253.531 16.5313Q252.125 15.8125 249.563 15.8125L249.563 14.6563L264.219 14.6563L264.219 15.8125L263.344 15.8125Q261.563 15.8125 260.375 16.5313Q259.188 17.25 258.656 18.6875Q258.25 19.6875 258.25 22.2813L258.25 38.375Q258.25 45.8438 257.266 49.1563Q256.281 52.4688 252.469 55.25Q248.656 58.0313 242.063 58.0313Q236.563 58.0313 233.563 56.5625Q229.469 54.5625 227.781 51.4375Q226.094 48.3125 226.094 43.0313L226.094 22.2813Q226.094 18.625 225.688 17.7344Q225.281 16.8438 224.281 16.3125Q223.281 15.7813 220.594 15.8125L220.594 14.6563ZM287.313 37.7188L287.313 49.5938Q287.313 53.0313 287.734 53.9219Q288.156 54.8125 289.219 55.3438Q290.281 55.875 293.188 55.875L293.188 57.0313L271.5 57.0313L271.5 55.875Q274.438 55.875 275.484 55.3281Q276.531 54.7813 276.953 53.9063Q277.375 53.0313 277.375 49.5938L277.375 22.0938Q277.375 18.6563 276.953 17.7656Q276.531 16.875 275.469 16.3438Q274.406 15.8125 271.5 15.8125L271.5 14.6563L291.188 14.6563Q298.875 14.6563 302.438 15.7188Q306 16.7813 308.25 19.6406Q310.5 22.5 310.5 26.3438Q310.5 31.0313 307.125 34.0938Q304.969 36.0313 301.094 37L311.281 51.3438Q313.281 54.125 314.125 54.8125Q315.406 55.7813 317.094 55.875L317.094 57.0313L303.75 57.0313L290.094 37.7188L287.313 37.7188ZM287.313 16.9375L287.313 35.5L289.094 35.5Q293.438 35.5 295.594 34.7031Q297.75 33.9063 298.984 31.8281Q300.219 29.75 300.219 26.4063Q300.219 21.5625 297.953 19.25Q295.688 16.9375 290.656 16.9375L287.313 16.9375ZM365.688 13.6875L365.688 28.625L364.531 28.625Q362.438 22.5 358.25 19.3125Q354.063 16.125 349.094 16.125Q344.344 16.125 341.188 18.7969Q338.031 21.4688 336.719 26.25Q335.406 31.0313 335.406 36.0625Q335.406 42.1563 336.844 46.75Q338.281 51.3438 341.484 53.5Q344.688 55.6563 349.094 55.6563Q350.625 55.6563 352.234 55.3281Q353.844 55 355.531 54.375L355.531 45.5625Q355.531 43.0625 355.188 42.3281Q354.844 41.5938 353.766 41Q352.688 40.4063 351.156 40.4063L350.063 40.4063L350.063 39.25L370.656 39.25L370.656 40.4063Q368.313 40.5625 367.391 41.0469Q366.469 41.5313 365.969 42.6563Q365.688 43.25 365.688 45.5625L365.688 54.375Q361.625 56.1875 357.234 57.1094Q352.844 58.0313 348.125 58.0313Q342.094 58.0313 338.109 56.3906Q334.125 54.75 331.078 52.0781Q328.031 49.4063 326.313 46.0625Q324.125 41.75 324.125 36.4063Q324.125 26.8438 330.844 20.25Q337.563 13.6563 347.75 13.6563Q350.906 13.6563 353.438 14.1563Q354.813 14.4063 357.891 15.5781Q360.969 16.75 361.531 16.75Q362.406 16.75 363.156 16.1094Q363.906 15.4688 364.531 13.6875L365.688 13.6875ZM401.031 14.0625Q411.156 13.6875 417.484 19.9688Q423.813 26.25 423.813 35.6875Q423.813 43.75 419.094 49.875Q412.844 58 401.438 58Q390 58 383.75 50.25Q378.813 44.125 378.813 35.7188Q378.813 26.2813 385.234 19.9844Q391.656 13.6875 401.031 14.0625ZM401.406 16.0625Q395.594 16.0625 392.563 22Q390.094 26.875 390.094 36Q390.094 46.8438 393.906 52.0313Q396.563 55.6563 401.344 55.6563Q404.563 55.6563 406.719 54.0938Q409.469 52.0938 411 47.7031Q412.531 43.3125 412.531 36.25Q412.531 27.8438 410.969 23.6719Q409.406 19.5 406.984 17.7813Q404.563 16.0625 401.406 16.0625Z" />
    </g>
    <g transform="translate(182.5, 73.59375)" id="#3347">
      <path d="M2.8125 57.9063L5.5 44.6563L1.25 44.6563L1.25 40.5L6.3125 40.5L8.15625 31.375L1.25 31.375L1.25 27.3125L8.96875 27.3125L11.6875 13.7813L15.8125 13.7813L13.0625 27.3125L22.2813 27.3125L24.9688 13.7813L29.0938 13.7813L26.3438 27.3125L30.7188 27.3125L30.7188 31.375L25.5625 31.375L23.6875 40.5L30.7188 40.5L30.7188 44.6563L22.9063 44.6563L20.2188 57.9063L16.0625 57.9063L18.75 44.6563L9.65625 44.6563L6.84375 57.9063L2.8125 57.9063ZM10.4688 40.5L19.6563 40.5L21.4688 31.375L12.2813 31.375L10.4688 40.5ZM46.4688 35.7813L46.4688 34.6875Q50.0313 33.6563 51.4063 32.7656Q52.7813 31.875 53.7813 30.0469Q54.7813 28.2188 54.7813 26.3438Q54.7813 23.75 52.8906 21.8906Q51 20.0313 48.1875 20.0313Q43.8125 20.0313 40.75 24.6563L39.5938 24.25Q41.8438 19.0313 45.3594 16.4063Q48.875 13.7813 53.1875 13.7813Q57.5938 13.7813 60.4531 16.4688Q63.3125 19.1563 63.3125 22.75Q63.3125 25.0938 61.9844 27.2656Q60.6563 29.4375 57.8125 31.0938Q61.4687 32.875 63.3906 35.4844Q65.3125 38.0938 65.3125 42.0313Q65.3125 48.6563 60.5156 53.2969Q55.7188 57.9375 47.6563 57.9375Q42.2813 57.9375 39.8125 56.1563Q38.0313 54.9063 38.0313 52.9375Q38.0313 51.5 39.0625 50.4844Q40.0938 49.4688 41.4375 49.4688Q42.4688 49.4688 43.375 49.9063Q43.875 50.1563 46.9219 52.6406Q49.9688 55.125 52.625 55.125Q54.9375 55.125 56.5938 53.2969Q58.25 51.4688 58.25 48.6563Q58.25 44.375 55.25 40.7656Q52.25 37.1563 46.4688 35.7813ZM83.4688 35.7813L83.4688 34.6875Q87.0313 33.6563 88.4063 32.7656Q89.7813 31.875 90.7813 30.0469Q91.7813 28.2188 91.7813 26.3438Q91.7813 23.75 89.8906 21.8906Q88 20.0313 85.1875 20.0313Q80.8125 20.0313 77.75 24.6563L76.5938 24.25Q78.8438 19.0313 82.3594 16.4063Q85.875 13.7813 90.1875 13.7813Q94.5938 13.7813 97.4531 16.4688Q100.313 19.1563 100.313 22.75Q100.313 25.0938 98.9844 27.2656Q97.6563 29.4375 94.8125 31.0938Q98.4688 32.875 100.391 35.4844Q102.313 38.0938 102.313 42.0313Q102.313 48.6563 97.5156 53.2969Q92.7188 57.9375 84.6563 57.9375Q79.2813 57.9375 76.8125 56.1563Q75.0313 54.9063 75.0313 52.9375Q75.0313 51.5 76.0625 50.4844Q77.0938 49.4688 78.4375 49.4688Q79.4688 49.4688 80.375 49.9063Q80.875 50.1563 83.9219 52.6406Q86.9688 55.125 89.625 55.125Q91.9375 55.125 93.5938 53.2969Q95.25 51.4688 95.25 48.6563Q95.25 44.375 92.25 40.7656Q89.25 37.1563 83.4688 35.7813ZM112.594 41.0625L132.719 13.7813L136.531 13.7813L136.531 41.0625L140.406 41.0625L140.406 47.5313L136.531 47.5313L136.531 57.0313L127.938 57.0313L127.938 47.5313L112.594 47.5313L112.594 41.0625ZM115.625 41.0625L127.938 41.0625L127.938 24.3438L115.625 41.0625ZM159.344 57.9063L170.875 22.9375L162.094 22.9375Q156.938 22.9375 154.344 24.2813Q152.531 25.2188 151.344 27.8125L150.156 27.8125L153.219 14.6563L178.469 14.6563L164.25 57.9063L159.344 57.9063Z" />
    </g>
  </g>
</svg>