<svg xmlns="http://www.w3.org/2000/svg" version="1.1" xmlns:xlink="http://www.w3.org/1999/xlink" xmlns:svgjs="http://svgjs.dev/svgjs" width="1920" height="1080" preserveAspectRatio="none" viewBox="0 0 1920 1080"><g mask="url(&quot;#SvgjsMask4324&quot;)" fill="none"><rect width="1920" height="1080" x="0" y="0" fill="url(&quot;#SvgjsLinearGradient4325&quot;)"></rect><path d="M1920 0L1385.3200000000002 0L1920 225.87z" fill="rgba(255, 255, 255, .1)"></path><path d="M1385.3200000000002 0L1920 225.87L1920 568.54L1231.13 0z" fill="rgba(255, 255, 255, .075)"></path><path d="M1231.13 0L1920 568.54L1920 874.9L559.7800000000001 0z" fill="rgba(255, 255, 255, .05)"></path><path d="M559.7800000000002 0L1920 874.9L1920 973.6L244.06000000000017 0z" fill="rgba(255, 255, 255, .025)"></path><path d="M0 1080L96.99 1080L0 1003.4z" fill="rgba(0, 0, 0, .1)"></path><path d="M0 1003.4L96.99 1080L932.51 1080L0 873.9399999999999z" fill="rgba(0, 0, 0, .075)"></path><path d="M0 873.94L932.51 1080L1200.31 1080L0 498.82000000000005z" fill="rgba(0, 0, 0, .05)"></path><path d="M0 498.81999999999994L1200.31 1080L1469.59 1080L0 353.74999999999994z" fill="rgba(0, 0, 0, .025)"></path></g><defs><mask id="SvgjsMask4324"><rect width="1920" height="1080" fill="#ffffff"></rect></mask><linearGradient x1="10.94%" y1="119.44%" x2="89.06%" y2="-19.44%" gradientUnits="userSpaceOnUse" id="SvgjsLinearGradient4325"><stop stop-color="rgba(43, 14, 71, 1)" offset="0.34"></stop><stop stop-color="rgba(24, 124, 111, 1)" offset="0.85"></stop></linearGradient></defs></svg>